<?xml version="1.0" encoding="UTF-8" standalone="no"?>

<svg
   width="1200"
   height="630"
   viewBox="0 0 317.49999 166.6875"
   version="1.1"
   id="svg5"
   xml:space="preserve"
   xmlns="http://www.w3.org/2000/svg"
   xmlns:svg="http://www.w3.org/2000/svg"><defs
     id="defs2" /><g
     id="layer1"><g
       id="g8"
       transform="matrix(0.88194444,0,0,0.88194444,-49.399491,103.53455)"><g
         id="g998"
         transform="translate(1.9918718,-5.8836474)"><g
           aria-label="#?"
           transform="matrix(2.2590315,0,0,2.2590315,55.687595,-82.663718)"
           id="g6"><path
             d="m 24.349777,22.127313 -1.085469,8.596916 h 2.713673 v 4.515553 h -3.321536 l -0.824957,6.274012 h -5.666149 l 0.824956,-6.274012 h -4.124783 l -0.824956,6.274012 H 6.374406 L 7.1559439,35.239782 H 4.572527 v -4.515553 h 3.1912797 l 1.128888,-8.596916 H 6.1790216 v -4.537262 h 3.3215359 l 0.7815375,-6.165465 h 5.709569 l -0.846666,6.165465 h 4.146492 l 0.824957,-6.165465 h 5.66615 l -0.824957,6.165465 h 2.670254 q 0.998632,-2.409742 2.887349,-3.929399 1.910426,-1.541366 4.23333,-2.257776 2.322904,-0.738119 4.58068,-0.738119 3.321536,0 5.535893,1.020341 2.214358,0.998632 3.321536,2.670255 1.128888,1.649913 1.128888,3.582048 0,2.105811 -0.824956,3.451793 -0.803248,1.324272 -1.997264,2.236066 -1.194016,0.890085 -2.409742,1.671623 -1.194016,0.781538 -2.018972,1.75846 -0.803248,0.976923 -0.803248,2.49658 v 0.890084 h -6.274012 v -1.107178 q 0,-2.236067 0.71641,-3.647177 0.738119,-1.432819 1.801879,-2.344614 1.085469,-0.911794 2.149229,-1.584785 1.06376,-0.6947 1.780169,-1.41111 0.73812,-0.738119 0.73812,-1.823588 0,-1.194016 -0.976923,-1.823589 -0.976922,-0.629572 -2.496579,-0.629572 -0.976922,0 -2.301195,0.434188 -1.324272,0.412478 -2.691964,1.715041 -1.367691,1.280854 -2.496579,3.90769 z m -10.919821,8.596916 h 4.124784 l 1.128888,-8.596916 h -4.124784 z m 24.770409,3.668887 q 1.628204,0 2.778801,1.172306 1.150598,1.150598 1.150598,2.757092 0,1.606495 -1.150598,2.778802 -1.150597,1.150597 -2.778801,1.150597 -1.649913,0 -2.778801,-1.150597 -1.128888,-1.172307 -1.128888,-2.778802 0,-1.606494 1.128888,-2.757092 1.128888,-1.172306 2.778801,-1.172306 z"
             style="fill:#ffffff"
             id="path4" /></g><text
           xml:space="preserve"
           style="font-style:normal;font-weight:normal;font-size:44px;line-height:0.9;font-family:sans-serif;fill:#000000;fill-opacity:1;stroke:none;stroke-width:0.211488"
           x="179.00809"
           y="-26.338989"
           id="text376"><tspan
             id="tspan374"
             style="font-style:normal;font-variant:normal;font-weight:bold;font-stretch:normal;font-size:44px;font-family:Inter;-inkscape-font-specification:'Inter Bold';fill:#ffffff;fill-opacity:1;stroke-width:0.211488"
             x="179.00809"
             y="-26.338989">Parameter</tspan><tspan
             style="font-style:normal;font-variant:normal;font-weight:bold;font-stretch:normal;font-size:44px;font-family:Inter;-inkscape-font-specification:'Inter Bold';fill:#ffffff;fill-opacity:1;stroke-width:0.211488"
             x="179.00809"
             y="15.051979"
             id="tspan991">Page</tspan></text></g></g></g></svg>
